<?xml version="1.0" encoding="iso-8859-1"?>
<!-- Generator: Adobe Illustrator 19.0.0, SVG Export Plug-In . SVG Version: 6.00 Build 0)  -->
<svg version="1.1" id="Capa_1" xmlns="http://www.w3.org/2000/svg" xmlns:xlink="http://www.w3.org/1999/xlink" x="0px" y="0px"
	 viewBox="0 0 512 512" style="enable-background:new 0 0 512 512;" xml:space="preserve">
<circle style="fill:#E02424;" cx="256" cy="256" r="256"/>
<path style="fill:#AF1916;" d="M512,256c0-3.003-0.071-5.99-0.173-8.968L331.579,66.419C327.061,61.839,320.784,59,313.842,59
	c-13.761,0-24.917,11.156-24.917,24.917c0,6.241,2.3,11.94,6.094,16.308l6.009,6.09v45.504l-84.48-84.709
	C211.992,62.127,205.44,59,198.155,59c-13.761,0-24.917,11.156-24.917,24.917c0,6.665,2.622,12.711,6.887,17.179l5.216,5.22v49.144
	h-64.458v58.189h-10.402c-11.253,0-20.46,9.207-20.46,20.46v31.75c0,5.461,2.172,10.435,5.692,14.112l25.17,25.073v39.464
	l54.318,54.66v6.004l-28.732,29.1l75.469,75.469C233.082,511.221,244.45,512,256,512C397.385,512,512,397.385,512,256z"/>
<path style="fill:#00A6FF;" d="M121.521,286.318h-11.04c-11.253,0-20.46-9.207-20.46-20.46v-31.75c0-11.253,9.207-20.46,20.46-20.46
	h11.04V286.318z"/>
<path style="fill:#0073D9;" d="M390.479,286.318h11.04c11.253,0,20.46-9.207,20.46-20.46v-31.75c0-11.253-9.207-20.46-20.46-20.46
	h-11.04V286.318z"/>
<rect x="175.2" y="335.43" style="fill:#00E8F2;" width="46.21" height="71.879"/>
<polygon style="fill:#FF9D1C;" points="221.414,405.171 175.2,405.171 146.468,434.271 250.146,434.271 "/>
<rect x="290.58" y="335.43" style="fill:#00C2C9;" width="46.21" height="71.879"/>
<polygon style="fill:#CF7713;" points="336.798,405.171 290.583,405.171 261.852,434.271 365.529,434.271 "/>
<rect x="185.34" y="94.95" style="fill:#00E8F2;" width="25.629" height="64.61"/>
<rect x="301.03" y="94.95" style="fill:#00C2C9;" width="25.629" height="64.61"/>
<rect x="120.88" y="155.46" style="fill:#FFFFFF;" width="270.23" height="189.05"/>
<rect x="256" y="155.46" style="fill:#E0E0E2;" width="135.12" height="189.05"/>
<rect x="184.78" y="280.67" style="fill:#FF9D1C;" width="142.43" height="23.966"/>
<rect x="256" y="280.68" style="fill:#CF7713;" width="71.21" height="23.961"/>
<g>
	<rect x="184.78" y="280.67" style="fill:#004EB0;" width="21.674" height="23.966"/>
	<rect x="225.04" y="280.67" style="fill:#004EB0;" width="21.674" height="23.966"/>
</g>
<g>
	<rect x="265.29" y="280.67" style="fill:#003C7D;" width="21.674" height="23.966"/>
	<rect x="305.54" y="280.67" style="fill:#003C7D;" width="21.674" height="23.966"/>
</g>
<circle style="fill:#00A6FF;" cx="200.88" cy="220.93" r="32.469"/>
<circle style="fill:#004EB0;" cx="200.88" cy="220.93" r="16.833"/>
<circle style="fill:#0073D9;" cx="311.11" cy="220.93" r="32.469"/>
<circle style="fill:#003C7D;" cx="311.11" cy="220.93" r="16.833"/>
<circle style="fill:#FF9D1C;" cx="198.16" cy="83.917" r="24.917"/>
<circle style="fill:#CF7713;" cx="313.84" cy="83.917" r="24.917"/>
<g>
</g>
<g>
</g>
<g>
</g>
<g>
</g>
<g>
</g>
<g>
</g>
<g>
</g>
<g>
</g>
<g>
</g>
<g>
</g>
<g>
</g>
<g>
</g>
<g>
</g>
<g>
</g>
<g>
</g>
</svg>
