<?xml version="1.0" standalone="no"?>
<!DOCTYPE svg PUBLIC "-//W3C//DTD SVG 20010904//EN"
 "http://www.w3.org/TR/2001/REC-SVG-20010904/DTD/svg10.dtd">
<svg version="1.0" xmlns="http://www.w3.org/2000/svg"
 width="700.000000pt" height="700.000000pt" viewBox="0 0 700.000000 700.000000"
 preserveAspectRatio="xMidYMid meet">
<metadata>
Created by potrace 1.11, written by Peter Selinger 2001-2013
</metadata>
<g transform="translate(0.000000,700.000000) scale(0.100000,-0.100000)"
fill="#000000" stroke="none">
<path d="M3350 6994 c-706 -38 -1352 -263 -1898 -661 -730 -532 -1217 -1298
-1386 -2178 -80 -416 -80 -895 0 -1310 233 -1210 1086 -2212 2239 -2630 750
-271 1541 -284 2295 -35 1215 399 2128 1456 2345 2715 40 229 49 347 49 595 0
256 -17 442 -60 665 -290 1511 -1531 2656 -3054 2819 -142 16 -420 26 -530 20z
m-503 -829 c70 -32 133 -92 169 -162 26 -51 29 -68 29 -148 0 -78 -4 -97 -28
-146 -15 -31 -50 -77 -77 -103 l-50 -47 0 -339 0 -340 610 0 610 0 0 340 0
339 -50 47 c-27 26 -62 72 -77 103 -24 49 -28 68 -28 146 0 109 23 163 100
241 127 128 343 128 470 0 77 -78 100 -132 100 -241 0 -78 -4 -97 -28 -146
-15 -31 -50 -77 -77 -103 l-50 -47 0 -339 0 -340 440 0 440 0 0 -398 0 -399
100 -6 c125 -8 184 -31 244 -98 66 -73 71 -102 71 -410 l0 -265 -30 -59 c-34
-66 -101 -125 -165 -144 -20 -6 -78 -11 -129 -11 l-91 0 0 -400 0 -400 -370 0
-370 0 0 -418 0 -417 190 -190 c105 -104 190 -193 190 -197 0 -5 -315 -8 -700
-8 -385 0 -700 3 -700 8 0 4 86 93 190 197 l190 190 0 417 0 418 -470 0 -470
0 0 -417 0 -418 197 -197 198 -198 -715 0 -715 0 198 198 197 197 0 418 0 417
-370 0 -370 0 0 400 0 400 -102 0 c-87 0 -111 4 -153 24 -58 27 -107 74 -138
131 -21 38 -22 55 -25 318 -4 330 0 350 82 432 66 67 119 85 243 85 l93 0 0
400 0 400 440 0 440 0 0 343 0 342 -35 23 c-44 28 -100 113 -116 175 -17 69
-7 182 20 235 87 170 281 242 448 167z"/>
<path d="M2676 4195 c-91 -32 -147 -104 -154 -195 -6 -81 16 -138 73 -188 117
-103 284 -70 356 70 26 51 26 146 -1 197 -26 53 -92 107 -145 120 -56 14 -81
13 -129 -4z"/>
<path d="M4152 4189 c-138 -69 -174 -243 -73 -360 46 -54 100 -79 175 -79 110
0 191 62 223 169 42 146 -69 291 -224 291 -39 0 -72 -7 -101 -21z"/>
<path d="M2530 3000 l0 -160 145 0 145 0 0 160 0 160 -145 0 -145 0 0 -160z"/>
<path d="M3080 3000 l0 -160 145 0 145 0 0 160 0 160 -145 0 -145 0 0 -160z"/>
<path d="M3630 3000 l0 -160 145 0 145 0 0 160 0 160 -145 0 -145 0 0 -160z"/>
<path d="M4180 3000 l0 -160 145 0 145 0 0 160 0 160 -145 0 -145 0 0 -160z"/>
</g>
</svg>
