<?xml version="1.0" encoding="iso-8859-1"?>
<!-- Generator: Adobe Illustrator 19.0.0, SVG Export Plug-In . SVG Version: 6.00 Build 0)  -->
<svg version="1.1" id="Capa_1" xmlns="http://www.w3.org/2000/svg" xmlns:xlink="http://www.w3.org/1999/xlink" x="0px" y="0px"
	 viewBox="0 0 512 512" style="enable-background:new 0 0 512 512;" xml:space="preserve">
<circle style="fill:#00E8F2;" cx="256" cy="256" r="256"/>
<path style="fill:#00C2C9;" d="M508.902,295.88L302.668,89.497C290.77,77.463,274.26,70,256,70
	c-36.255,0-65.645,29.39-65.645,65.645l22.395,22.706h-23.791c-5.598,0-10.971,1.01-15.949,2.854l-46.283-46.436
	c-2.862-3.076-6.279-5.692-10.163-7.689l-9.837,19.13l7.34,8.246c0.625,1.674,0.961,3.473,0.961,5.33
	c0,0.235-0.025,0.464-0.035,0.696c-0.395,0.217-0.795,0.429-1.18,0.659L82.976,107.08c-12.321,6.336-19.974,18.868-19.974,32.706
	c0,10.139,4.129,19.328,10.79,25.985l15.222,15.161v40.514c0,11.126,4.448,21.232,11.657,28.636l42.039,41.847v12.354
	c0,11.995,4.633,22.957,12.193,31.196l60.811,60.842h-34.751v28.013l87.366,87.366C390.578,505.901,490.368,414.362,508.902,295.88z
	"/>
<rect x="230.42" y="347.52" style="fill:#004EB0;" width="51.17" height="53.34"/>
<g>
	<rect x="256" y="347.53" style="fill:#003C7D;" width="25.58" height="53.33"/>
	<path style="fill:#003C7D;" d="M401.475,337.98h21.511v-56.025c0-22.647-18.425-41.073-41.072-41.073h-19.646v21.511h19.646
		c10.786,0,19.561,8.775,19.561,19.561V337.98z"/>
</g>
<path style="fill:#E0E0E2;" d="M395.436,396.321l9.837-19.13c-5.12-2.632-8.3-7.835-8.3-13.576c0-8.413,6.844-15.257,15.257-15.257
	s15.257,6.844,15.257,15.257c0,5.741-3.18,10.944-8.3,13.576l9.837,19.13c12.321-6.336,19.974-18.868,19.974-32.706
	c0-20.274-16.494-36.768-36.768-36.768s-36.768,16.494-36.768,36.768C375.462,377.453,383.116,389.985,395.436,396.321z"/>
<path style="fill:#004EB0;" d="M89.014,165.42h21.511v56.025c0,10.786,8.775,19.561,19.561,19.561h19.645v21.511h-19.645
	c-22.647,0-41.072-18.425-41.072-41.073V165.42z"/>
<path style="fill:#FFFFFF;" d="M82.976,107.08l9.837,19.13c-5.12,2.632-8.3,7.834-8.3,13.576c0,8.413,6.844,15.257,15.257,15.257
	s15.257-6.844,15.257-15.257c0-5.741-3.181-10.944-8.3-13.576l9.837-19.13c12.321,6.336,19.974,18.868,19.974,32.706
	c0,20.274-16.494,36.768-36.768,36.768s-36.768-16.494-36.768-36.768C63.002,125.947,70.655,113.415,82.976,107.08z"/>
<rect x="226.91" y="133.7" style="fill:#004EB0;" width="58.18" height="26.437"/>
<rect x="256" y="133.7" style="fill:#003C7D;" width="29.09" height="26.44"/>
<path style="fill:#FFFFFF;" d="M323.042,350.53H188.958c-25.436,0-46.248-20.811-46.248-46.248v-99.684
	c0-25.436,20.811-46.247,46.248-46.247h134.083c25.436,0,46.247,20.811,46.247,46.247v99.684
	C369.289,329.719,348.478,350.53,323.042,350.53z"/>
<path style="fill:#E0E0E2;" d="M369.29,204.6v99.68c0,25.44-20.81,46.25-46.25,46.25H256V158.35h67.04
	C348.48,158.35,369.29,179.16,369.29,204.6z"/>
<path style="fill:#FFFFFF;" d="M256,70c-36.255,0-65.645,29.39-65.645,65.645h131.29C321.645,99.39,292.255,70,256,70z"/>
<path style="fill:#E0E0E2;" d="M321.65,135.65H256V70C292.25,70,321.65,99.39,321.65,135.65z"/>
<path style="fill:#FF9D1C;" d="M282.035,122.447h-52.071c-5.615,0-10.167-4.552-10.167-10.167v-0.475
	c0-5.615,4.552-10.167,10.167-10.167h52.071c5.615,0,10.167,4.552,10.167,10.167v0.475
	C292.202,117.895,287.65,122.447,282.035,122.447z"/>
<path style="fill:#CF7713;" d="M292.2,111.81v0.47c0,5.61-4.55,10.17-10.16,10.17H256v-20.81h26.04
	C287.65,101.64,292.2,106.19,292.2,111.81z"/>
<rect x="177.46" y="213.78" style="fill:#00A6FF;" width="157.08" height="81.32"/>
<rect x="256" y="213.78" style="fill:#0073D9;" width="78.54" height="81.32"/>
<polygon style="fill:#00E8F2;" points="217.32,284.751 203.91,256.33 177.458,256.33 177.458,250.19 207.802,250.19 
	215.883,267.316 229.373,219.752 242.196,250.989 270.393,250.989 278.08,265.663 285.494,250.989 334.542,250.989 334.542,257.129 
	289.271,257.129 278.179,279.084 266.679,257.129 238.08,257.129 230.436,238.508 "/>
<polygon style="fill:#00C2C9;" points="334.54,250.99 334.54,257.13 289.27,257.13 278.18,279.08 266.68,257.13 256,257.13 
	256,250.99 270.39,250.99 278.08,265.66 285.49,250.99 "/>
<rect x="180.96" y="396.32" style="fill:#FF9D1C;" width="150.07" height="28.01"/>
<rect x="256" y="396.32" style="fill:#CF7713;" width="75.04" height="28.01"/>
<g>
</g>
<g>
</g>
<g>
</g>
<g>
</g>
<g>
</g>
<g>
</g>
<g>
</g>
<g>
</g>
<g>
</g>
<g>
</g>
<g>
</g>
<g>
</g>
<g>
</g>
<g>
</g>
<g>
</g>
</svg>
